<svg xmlns="http://www.w3.org/2000/svg" xmlns:xlink="http://www.w3.org/1999/xlink" contentStyleType="text/css" data-diagram-type="DESCRIPTION" height="732px" preserveAspectRatio="none" style="width:1363px;height:732px;background:#FEFEFE;" version="1.1" viewBox="0 0 1363 732" width="1363px" zoomAndPan="magnify"><?plantuml 1.2026.3beta4?><defs/><g><rect fill="#FEFEFE" height="732" style="stroke:none;stroke-width:1;" width="1363" x="0" y="0"/><g class="title" data-source-line="4"><text fill="#000000" font-family="sans-serif" font-size="14" font-weight="700" lengthAdjust="spacing" textLength="249.1563" x="553.8528" y="22.9951">REQ-003 Architecture Overview</text></g><!--cluster TTS--><g class="cluster" data-qualified-name="TTS" data-source-line="6" id="ent0002"><path d="M8.5,86.2969 L163.6572,86.2969 A3.75,3.75 0 0 1 166.1572,88.7969 L173.1572,108.5938 L173.5,108.5938 A2.5,2.5 0 0 1 176,111.0938 L176,294.5369 A2.5,2.5 0 0 1 173.5,297.0369 L8.5,297.0369 A2.5,2.5 0 0 1 6,294.5369 L6,88.7969 A2.5,2.5 0 0 1 8.5,86.2969" fill="none" style="stroke:#000000;stroke-width:1.5;"/><line style="stroke:#000000;stroke-width:1.5;" x1="6" x2="173.1572" y1="108.5938" y2="108.5938"/><text fill="#000000" font-family="sans-serif" font-size="14" font-weight="700" lengthAdjust="spacing" textLength="154.1572" x="10" y="101.292">TTS Script (Python)</text></g><!--cluster FE--><g class="cluster" data-qualified-name="FE" data-source-line="12" id="ent0006"><path d="M312.5,43.2969 L607.8828,43.2969 A3.75,3.75 0 0 1 610.3828,45.7969 L617.3828,65.5938 L1340.5,65.5938 A2.5,2.5 0 0 1 1343,68.0938 L1343,581.2869 A2.5,2.5 0 0 1 1340.5,583.7869 L312.5,583.7869 A2.5,2.5 0 0 1 310,581.2869 L310,45.7969 A2.5,2.5 0 0 1 312.5,43.2969" fill="none" style="stroke:#000000;stroke-width:1.5;"/><line style="stroke:#000000;stroke-width:1.5;" x1="310" x2="617.3828" y1="65.5938" y2="65.5938"/><text fill="#000000" font-family="sans-serif" font-size="14" font-weight="700" lengthAdjust="spacing" textLength="294.3828" x="314" y="58.292">Frontend (React + TypeScript + Vite)</text></g><!--cluster Entry--><g class="cluster" data-qualified-name="FE.Entry" data-source-line="14" id="ent0007"><path d="M484.5,86.2969 L527.7529,86.2969 A3.75,3.75 0 0 1 530.2529,88.7969 L537.2529,108.5938 L619.5,108.5938 A2.5,2.5 0 0 1 622,111.0938 L622,171.0969 A2.5,2.5 0 0 1 619.5,173.5969 L484.5,173.5969 A2.5,2.5 0 0 1 482,171.0969 L482,88.7969 A2.5,2.5 0 0 1 484.5,86.2969" fill="none" style="stroke:#000000;stroke-width:1.5;"/><line style="stroke:#000000;stroke-width:1.5;" x1="482" x2="537.2529" y1="108.5938" y2="108.5938"/><text fill="#000000" font-family="sans-serif" font-size="14" font-weight="700" lengthAdjust="spacing" textLength="42.2529" x="486" y="101.292">Entry</text></g><!--cluster Core (Pure Logic)--><g class="cluster" data-qualified-name="FE.Core .Pure Logic." data-source-line="18" id="ent0009"><path d="M953.5,472.4869 L1091.6221,472.4869 A3.75,3.75 0 0 1 1094.1221,474.9869 L1101.1221,494.7838 L1286.5,494.7838 A2.5,2.5 0 0 1 1289,497.2838 L1289,557.2869 A2.5,2.5 0 0 1 1286.5,559.7869 L953.5,559.7869 A2.5,2.5 0 0 1 951,557.2869 L951,474.9869 A2.5,2.5 0 0 1 953.5,472.4869" fill="none" style="stroke:#000000;stroke-width:1.5;"/><line style="stroke:#000000;stroke-width:1.5;" x1="951" x2="1101.1221" y1="494.7838" y2="494.7838"/><text fill="#000000" font-family="sans-serif" font-size="14" font-weight="700" lengthAdjust="spacing" textLength="137.1221" x="955" y="487.482">Core (Pure Logic)</text></g><!--cluster Scenes--><g class="cluster" data-qualified-name="FE.Scenes" data-source-line="23" id="ent0012"><path d="M336.5,336.1869 L393.1719,336.1869 A3.75,3.75 0 0 1 395.6719,338.6869 L402.6719,358.4838 L930.5,358.4838 A2.5,2.5 0 0 1 933,360.9838 L933,420.9869 A2.5,2.5 0 0 1 930.5,423.4869 L336.5,423.4869 A2.5,2.5 0 0 1 334,420.9869 L334,338.6869 A2.5,2.5 0 0 1 336.5,336.1869" fill="none" style="stroke:#000000;stroke-width:1.5;"/><line style="stroke:#000000;stroke-width:1.5;" x1="334" x2="402.6719" y1="358.4838" y2="358.4838"/><text fill="#000000" font-family="sans-serif" font-size="14" font-weight="700" lengthAdjust="spacing" textLength="55.6719" x="338" y="351.182">Scenes</text></g><!--cluster Shared Components--><g class="cluster" data-qualified-name="FE.Shared Components" data-source-line="30" id="ent0017"><path d="M343.5,472.4869 L503.8662,472.4869 A3.75,3.75 0 0 1 506.3662,474.9869 L513.3662,494.7838 L924.5,494.7838 A2.5,2.5 0 0 1 927,497.2838 L927,557.2869 A2.5,2.5 0 0 1 924.5,559.7869 L343.5,559.7869 A2.5,2.5 0 0 1 341,557.2869 L341,474.9869 A2.5,2.5 0 0 1 343.5,472.4869" fill="none" style="stroke:#000000;stroke-width:1.5;"/><line style="stroke:#000000;stroke-width:1.5;" x1="341" x2="513.3662" y1="494.7838" y2="494.7838"/><text fill="#000000" font-family="sans-serif" font-size="14" font-weight="700" lengthAdjust="spacing" textLength="159.3662" x="345" y="487.482">Shared Components</text></g><!--entity Gen--><g class="entity" data-qualified-name="TTS.Gen" data-source-line="7" id="ent0003"><rect fill="#F1F1F1" height="36.2969" rx="2.5" ry="2.5" style="stroke:#181818;stroke-width:0.5;" width="105.0459" x="37.48" y="121.2969"/><text fill="#000000" font-family="sans-serif" font-size="14" lengthAdjust="spacing" textLength="85.0459" x="47.48" y="144.292">generate.py</text></g><!--entity Voice--><g class="entity" data-qualified-name="TTS.Voice" data-source-line="8" id="ent0004"><rect fill="#F1F1F1" height="36.2969" rx="2.5" ry="2.5" style="stroke:#181818;stroke-width:0.5;" width="85.9668" x="67.02" y="244.7469"/><text fill="#000000" font-family="sans-serif" font-size="14" lengthAdjust="spacing" textLength="65.9668" x="77.02" y="267.742">voices.py</text></g><!--entity TH--><g class="entity" data-qualified-name="FE.TH" data-source-line="37" id="ent0022"><rect fill="#F1F1F1" height="36.2969" rx="2.5" ry="2.5" style="stroke:#181818;stroke-width:0.5;" width="74.4756" x="662.76" y="244.7469"/><text fill="#000000" font-family="sans-serif" font-size="14" lengthAdjust="spacing" textLength="54.4756" x="672.76" y="267.742">Theater</text></g><!--entity PC--><g class="entity" data-qualified-name="FE.PC" data-source-line="38" id="ent0023"><rect fill="#F1F1F1" height="36.2969" rx="2.5" ry="2.5" style="stroke:#181818;stroke-width:0.5;" width="140.6748" x="1043.66" y="371.1869"/><text fill="#000000" font-family="sans-serif" font-size="14" lengthAdjust="spacing" textLength="120.6748" x="1053.66" y="394.182">PlaybackControls</text></g><!--entity SL--><g class="entity" data-qualified-name="FE.Entry.SL" data-source-line="15" id="ent0008"><rect fill="#F1F1F1" height="36.2969" rx="2.5" ry="2.5" style="stroke:#181818;stroke-width:0.5;" width="108.8057" x="497.6" y="121.2969"/><text fill="#000000" font-family="sans-serif" font-size="14" lengthAdjust="spacing" textLength="88.8057" x="507.6" y="144.292">ScriptLoader</text></g><!--entity TL--><g class="entity" data-qualified-name="FE.Core .Pure Logic..TL" data-source-line="19" id="ent0010"><rect fill="#F1F1F1" height="36.2969" rx="2.5" ry="2.5" style="stroke:#181818;stroke-width:0.5;" width="149.1309" x="1123.43" y="507.4869"/><text fill="#000000" font-family="sans-serif" font-size="14" lengthAdjust="spacing" textLength="129.1309" x="1133.43" y="530.482">TimelineController</text></g><!--entity AM--><g class="entity" data-qualified-name="FE.Core .Pure Logic..AM" data-source-line="20" id="ent0011"><rect fill="#F1F1F1" height="36.2969" rx="2.5" ry="2.5" style="stroke:#181818;stroke-width:0.5;" width="121.1582" x="967.42" y="507.4869"/><text fill="#000000" font-family="sans-serif" font-size="14" lengthAdjust="spacing" textLength="101.1582" x="977.42" y="530.482">AudioManager</text></g><!--entity OS--><g class="entity" data-qualified-name="FE.Scenes.OS" data-source-line="24" id="ent0013"><rect fill="#F1F1F1" height="36.2969" rx="2.5" ry="2.5" style="stroke:#181818;stroke-width:0.5;" width="121.7256" x="350.14" y="371.1869"/><text fill="#000000" font-family="sans-serif" font-size="14" lengthAdjust="spacing" textLength="101.7256" x="360.14" y="394.182">OpeningScene</text></g><!--entity SS--><g class="entity" data-qualified-name="FE.Scenes.SS" data-source-line="25" id="ent0014"><rect fill="#F1F1F1" height="36.2969" rx="2.5" ry="2.5" style="stroke:#181818;stroke-width:0.5;" width="127.4063" x="789.3" y="371.1869"/><text fill="#000000" font-family="sans-serif" font-size="14" lengthAdjust="spacing" textLength="107.4063" x="799.3" y="394.182">SpeakingScene</text></g><!--entity VS--><g class="entity" data-qualified-name="FE.Scenes.VS" data-source-line="26" id="ent0015"><rect fill="#F1F1F1" height="36.2969" rx="2.5" ry="2.5" style="stroke:#181818;stroke-width:0.5;" width="107.9648" x="646.02" y="371.1869"/><text fill="#000000" font-family="sans-serif" font-size="14" lengthAdjust="spacing" textLength="87.9648" x="656.02" y="394.182">VotingScene</text></g><!--entity FS--><g class="entity" data-qualified-name="FE.Scenes.FS" data-source-line="27" id="ent0016"><rect fill="#F1F1F1" height="36.2969" rx="2.5" ry="2.5" style="stroke:#181818;stroke-width:0.5;" width="104.5811" x="506.71" y="371.1869"/><text fill="#000000" font-family="sans-serif" font-size="14" lengthAdjust="spacing" textLength="84.5811" x="516.71" y="394.182">FinaleScene</text></g><!--entity PA--><g class="entity" data-qualified-name="FE.Shared Components.PA" data-source-line="31" id="ent0018"><rect fill="#F1F1F1" height="36.2969" rx="2.5" ry="2.5" style="stroke:#181818;stroke-width:0.5;" width="109.8311" x="357.08" y="507.4869"/><text fill="#000000" font-family="sans-serif" font-size="14" lengthAdjust="spacing" textLength="89.8311" x="367.08" y="530.482">PlayerAvatar</text></g><!--entity AT--><g class="entity" data-qualified-name="FE.Shared Components.AT" data-source-line="32" id="ent0019"><rect fill="#F1F1F1" height="36.2969" rx="2.5" ry="2.5" style="stroke:#181818;stroke-width:0.5;" width="118.4854" x="501.76" y="507.4869"/><text fill="#000000" font-family="sans-serif" font-size="14" lengthAdjust="spacing" textLength="98.4854" x="511.76" y="530.482">AnimatedText</text></g><!--entity EI--><g class="entity" data-qualified-name="FE.Shared Components.EI" data-source-line="33" id="ent0020"><rect fill="#F1F1F1" height="36.2969" rx="2.5" ry="2.5" style="stroke:#181818;stroke-width:0.5;" width="125.5674" x="785.22" y="507.4869"/><text fill="#000000" font-family="sans-serif" font-size="14" lengthAdjust="spacing" textLength="105.5674" x="795.22" y="530.482">ExpressionIcon</text></g><!--entity RT--><g class="entity" data-qualified-name="FE.Shared Components.RT" data-source-line="34" id="ent0021"><rect fill="#F1F1F1" height="36.2969" rx="2.5" ry="2.5" style="stroke:#181818;stroke-width:0.5;" width="95.3594" x="655.32" y="507.4869"/><text fill="#000000" font-family="sans-serif" font-size="14" lengthAdjust="spacing" textLength="75.3594" x="665.32" y="530.482">RoundTitle</text></g><!--entity JSON--><g class="entity" data-qualified-name="JSON" data-source-line="63" id="ent0043"><path d="M191.86,239.0969 L191.86,286.6906 A2.5,2.5 0 0 0 194.36,289.1906 L291.6442,289.1906 A2.5,2.5 0 0 0 294.1442,286.6906 L294.1442,246.5969 L284.1442,236.5969 L194.36,236.5969 A2.5,2.5 0 0 0 191.86,239.0969" fill="#F1F1F1" style="stroke:#181818;stroke-width:0.5;"/><path d="M284.1442,236.5969 L284.1442,244.0969 A2.5,2.5 0 0 0 286.6442,246.5969 L294.1442,246.5969" fill="#F1F1F1" style="stroke:#181818;stroke-width:0.5;"/><text fill="#000000" font-family="sans-serif" font-size="14" lengthAdjust="spacing" textLength="82.2842" x="201.86" y="259.592">GameScript</text><text fill="#000000" font-family="sans-serif" font-size="14" lengthAdjust="spacing" textLength="34.5078" x="201.86" y="275.8889">JSON</text></g><!--entity Audio--><g class="entity" data-qualified-name="Audio" data-source-line="64" id="ent0044"><path d="M372.22,646.7869 L413.22,646.7869 A3.75,3.75 0 0 1 415.72,649.2869 L422.72,667.7869 L507.7776,667.7869 A2.5,2.5 0 0 1 510.2776,670.2869 L510.2776,714.8806 A2.5,2.5 0 0 1 507.7776,717.3806 L372.22,717.3806 A2.5,2.5 0 0 1 369.72,714.8806 L369.72,649.2869 A2.5,2.5 0 0 1 372.22,646.7869" fill="#F1F1F1" style="stroke:#181818;stroke-width:0.5;"/><line style="stroke:#181818;stroke-width:0.5;" x1="369.72" x2="422.72" y1="667.7869" y2="667.7869"/><text fill="#000000" font-family="sans-serif" font-size="14" lengthAdjust="spacing" textLength="80.9648" x="379.72" y="687.782">Audio MP3s</text><text fill="#000000" font-family="sans-serif" font-size="14" lengthAdjust="spacing" textLength="110.5576" x="379.72" y="704.0789">+ manifest.json</text></g><!--entity BGM--><g class="entity" data-qualified-name="BGM" data-source-line="65" id="ent0045"><path d="M972.8,654.9269 L1013.8,654.9269 A3.75,3.75 0 0 1 1016.3,657.4269 L1023.3,675.9269 L1083.2082,675.9269 A2.5,2.5 0 0 1 1085.7082,678.4269 L1085.7082,706.7238 A2.5,2.5 0 0 1 1083.2082,709.2238 L972.8,709.2238 A2.5,2.5 0 0 1 970.3,706.7238 L970.3,657.4269 A2.5,2.5 0 0 1 972.8,654.9269" fill="#F1F1F1" style="stroke:#181818;stroke-width:0.5;"/><line style="stroke:#181818;stroke-width:0.5;" x1="970.3" x2="1023.3" y1="675.9269" y2="675.9269"/><text fill="#000000" font-family="sans-serif" font-size="14" lengthAdjust="spacing" textLength="85.4082" x="980.3" y="695.922">assets/bgm/</text></g><!--link Gen to Voice--><g class="link" data-entity-1="ent0003" data-entity-2="ent0004" data-link-type="dependency" data-source-line="9" id="lnk5"><path d="M88.36,157.9969 C87.5,171.4169 87.14,190.3069 90,206.5969 C92.29,219.6669 95.0828,228.1966 99.5728,238.8666" fill="none" id="Gen-to-Voice" style="stroke:#181818;stroke-width:1;"/><polygon fill="#181818" points="101.9,244.3969,102.0961,234.55,99.9607,239.7883,94.7224,237.6529,101.9,244.3969" style="stroke:#181818;stroke-width:1;"/><text fill="#000000" font-family="sans-serif" font-size="13" lengthAdjust="spacing" textLength="86.9248" x="91" y="202.6638">assign voices</text></g><!--link SL to TH--><g class="link" data-entity-1="ent0008" data-entity-2="ent0022" data-link-type="dependency" data-source-line="40" id="lnk24"><path d="M573.2,157.8469 C601.34,180.9369 646.082,217.6504 674.192,240.7204" fill="none" id="SL-to-TH" style="stroke:#181818;stroke-width:1;"/><polygon fill="#181818" points="678.83,244.5269,674.4106,235.7252,674.965,241.3548,669.3354,241.9092,678.83,244.5269" style="stroke:#181818;stroke-width:1;"/><text fill="#000000" font-family="sans-serif" font-size="13" lengthAdjust="spacing" textLength="76.4067" x="631" y="202.6638">GameScript</text></g><!--link TH to TL--><g class="link" data-entity-1="ent0022" data-entity-2="ent0010" data-link-type="dependency" data-source-line="41" id="lnk25"><path d="M737.53,264.5169 C840.6,266.8669 1125.45,277.8769 1202,328.1869 C1255.59,363.4069 1292.94,397.4069 1268,456.4869 C1259.16,477.4269 1245.1725,491.4804 1229.2925,503.5804" fill="none" id="TH-to-TL" style="stroke:#181818;stroke-width:1;"/><polygon fill="#181818" points="1224.52,507.2169,1234.103,504.9438,1228.497,504.1865,1229.2544,498.5806,1224.52,507.2169" style="stroke:#181818;stroke-width:1;"/><text fill="#000000" font-family="sans-serif" font-size="13" lengthAdjust="spacing" textLength="71.8618" x="1276" y="393.9038">init &amp; drive</text></g><!--link TH to AM--><g class="link" data-entity-1="ent0022" data-entity-2="ent0011" data-link-type="dependency" data-source-line="42" id="lnk26"><path d="M737.42,264.9569 C787.41,268.2469 876.27,280.9069 933,328.1869 C991.06,376.5769 1015.0488,462.9831 1023.3688,501.3631" fill="none" id="TH-to-AM" style="stroke:#181818;stroke-width:1;"/><polygon fill="#181818" points="1024.64,507.2269,1026.6425,497.5837,1023.5807,502.3404,1018.8241,499.2786,1024.64,507.2269" style="stroke:#181818;stroke-width:1;"/><text fill="#000000" font-family="sans-serif" font-size="13" lengthAdjust="spacing" textLength="20.5601" x="1002" y="393.9038">init</text></g><!--link TH to OS--><g class="link" data-entity-1="ent0022" data-entity-2="ent0013" data-link-type="dependency" data-source-line="43" id="lnk27"><path d="M662.61,271.0069 C619.18,280.2169 546.17,298.6869 489,328.1869 C466.81,339.6369 449.0491,353.6059 434.0291,366.9259" fill="none" id="TH-to-OS" style="stroke:#181818;stroke-width:1;"/><polygon fill="#181818" points="429.54,370.9069,438.9276,367.9281,433.2809,367.5894,433.6196,361.9427,429.54,370.9069" style="stroke:#181818;stroke-width:1;"/></g><!--link TH to SS--><g class="link" data-entity-1="ent0022" data-entity-2="ent0014" data-link-type="dependency" data-source-line="44" id="lnk28"><path d="M721.6,281.4569 C750.76,305.1769 797.7554,343.4008 826.8554,367.0708" fill="none" id="TH-to-SS" style="stroke:#181818;stroke-width:1;"/><polygon fill="#181818" points="831.51,370.8569,827.0521,362.0747,827.6311,367.7018,822.004,368.2808,831.51,370.8569" style="stroke:#181818;stroke-width:1;"/></g><!--link TH to VS--><g class="link" data-entity-1="ent0022" data-entity-2="ent0015" data-link-type="dependency" data-source-line="45" id="lnk29"><path d="M700,281.4569 C700,305.1769 700,341.1869 700,364.8569" fill="none" id="TH-to-VS" style="stroke:#181818;stroke-width:1;"/><polygon fill="#181818" points="700,370.8569,704,361.8569,700,365.8569,696,361.8569,700,370.8569" style="stroke:#181818;stroke-width:1;"/></g><!--link TH to FS--><g class="link" data-entity-1="ent0022" data-entity-2="ent0016" data-link-type="dependency" data-source-line="46" id="lnk30"><path d="M680.1,281.4569 C653.22,305.1769 610.1186,343.2166 583.2986,366.8866" fill="none" id="TH-to-FS" style="stroke:#181818;stroke-width:1;"/><polygon fill="#181818" points="578.8,370.8569,588.1947,367.9006,582.5488,367.5484,582.9011,361.9025,578.8,370.8569" style="stroke:#181818;stroke-width:1;"/></g><!--link PC to TL--><g class="link" data-entity-1="ent0023" data-entity-2="ent0010" data-link-type="dependency" data-source-line="48" id="lnk31"><path d="M1124.98,407.8969 C1141.08,433.6369 1167.7382,476.25 1183.8382,501.99" fill="none" id="PC-to-TL" style="stroke:#181818;stroke-width:1;"/><polygon fill="#181818" points="1187.02,507.0769,1185.6386,497.3254,1184.3685,502.8378,1178.8561,501.5677,1187.02,507.0769" style="stroke:#181818;stroke-width:1;"/><text fill="#000000" font-family="sans-serif" font-size="13" lengthAdjust="spacing" textLength="105.8091" x="1154" y="452.5538">play/pause/seek</text></g><!--link PC to AM--><g class="link" data-entity-1="ent0023" data-entity-2="ent0011" data-link-type="dependency" data-source-line="49" id="lnk32"><path d="M1073.99,407.9169 C1060.78,415.6969 1047.35,426.1569 1039,439.4869 C1026.1,460.0769 1024.8355,482.9762 1025.8555,501.2462" fill="none" id="PC-to-AM" style="stroke:#181818;stroke-width:1;"/><polygon fill="#181818" points="1026.19,507.2369,1029.6821,498.0279,1025.9113,502.2446,1021.6945,498.4738,1026.19,507.2369" style="stroke:#181818;stroke-width:1;"/><text fill="#000000" font-family="sans-serif" font-size="13" lengthAdjust="spacing" textLength="97.6396" x="1040" y="452.5538">volume control</text></g><!--link OS to PA--><g class="link" data-entity-1="ent0013" data-entity-2="ent0018" data-link-type="dependency" data-source-line="51" id="lnk33"><path d="M411.13,407.8969 C411.32,433.6369 411.6357,475.337 411.8257,501.077" fill="none" id="OS-to-PA" style="stroke:#181818;stroke-width:1;"/><polygon fill="#181818" points="411.87,507.0769,415.8035,498.0476,411.8331,502.077,407.8037,498.1066,411.87,507.0769" style="stroke:#181818;stroke-width:1;"/></g><!--link SS to PA--><g class="link" data-entity-1="ent0014" data-entity-2="ent0018" data-link-type="dependency" data-source-line="52" id="lnk34"><path d="M824.91,407.9469 C809.57,416.6369 789.9,426.3369 771,431.4869 C719.43,445.5269 704.14,433.7469 651,439.4869 C632.35,441.4969 501.11,456.7969 484,464.4869 C461.86,474.4369 445.2724,488.8652 431.7924,502.7952" fill="none" id="SS-to-PA" style="stroke:#181818;stroke-width:1;"/><polygon fill="#181818" points="427.62,507.1069,436.7531,503.4209,431.097,503.5138,431.0042,497.8577,427.62,507.1069" style="stroke:#181818;stroke-width:1;"/></g><!--link SS to AT--><g class="link" data-entity-1="ent0014" data-entity-2="ent0019" data-link-type="dependency" data-source-line="53" id="lnk35"><path d="M822.19,407.8369 C807.11,415.8769 788.48,425.0269 771,431.4869 C713.88,452.6069 692.76,437.8169 638,464.4869 C615.58,475.4069 597.9374,489.5566 583.2174,503.0866" fill="none" id="SS-to-AT" style="stroke:#181818;stroke-width:1;"/><polygon fill="#181818" points="578.8,507.1469,588.133,504.0013,582.4812,503.7633,582.7193,498.1114,578.8,507.1469" style="stroke:#181818;stroke-width:1;"/></g><!--link SS to EI--><g class="link" data-entity-1="ent0014" data-entity-2="ent0020" data-link-type="dependency" data-source-line="54" id="lnk36"><path d="M852.35,407.8969 C851.39,433.6369 849.8336,475.341 848.8736,501.081" fill="none" id="SS-to-EI" style="stroke:#181818;stroke-width:1;"/><polygon fill="#181818" points="848.65,507.0769,852.9827,498.2322,848.8364,502.0803,844.9882,497.934,848.65,507.0769" style="stroke:#181818;stroke-width:1;"/></g><!--link SS to AM--><g class="link" data-entity-1="ent0014" data-entity-2="ent0011" data-link-type="dependency" data-source-line="55" id="lnk37"><path d="M855.38,407.5969 C856.6,417.0069 858.04,428.8669 859,439.4869 C859.17,441.3669 858.7,455.1069 860,456.4869 C870.28,467.4069 912.8,459.6569 927,464.4869 C955.79,474.2869 980.3936,489.5651 1000.0136,503.5451" fill="none" id="SS-to-AM" style="stroke:#181818;stroke-width:1;"/><polygon fill="#181818" points="1004.9,507.0269,999.8915,498.5466,1000.828,504.1254,995.2492,505.0618,1004.9,507.0269" style="stroke:#181818;stroke-width:1;"/><text fill="#000000" font-family="sans-serif" font-size="13" lengthAdjust="spacing" textLength="55.7896" x="861" y="452.5538">play TTS</text></g><!--link VS to PA--><g class="link" data-entity-1="ent0015" data-entity-2="ent0018" data-link-type="dependency" data-source-line="56" id="lnk38"><path d="M675.97,407.8869 C662.77,416.5669 645.73,426.2669 629,431.4869 C586.44,444.7669 571.68,426.5869 529,439.4869 C507.1,446.1069 502.86,451.5369 484,464.4869 C465.07,477.4869 449.6227,490.4075 435.5427,502.9975" fill="none" id="VS-to-PA" style="stroke:#181818;stroke-width:1;"/><polygon fill="#181818" points="431.07,506.9969,440.4453,503.9796,434.7972,503.6641,435.1128,498.016,431.07,506.9969" style="stroke:#181818;stroke-width:1;"/></g><!--link VS to RT--><g class="link" data-entity-1="ent0015" data-entity-2="ent0021" data-link-type="dependency" data-source-line="57" id="lnk39"><path d="M700.39,407.8969 C700.97,433.6369 701.8948,475.3384 702.4748,501.0784" fill="none" id="VS-to-RT" style="stroke:#181818;stroke-width:1;"/><polygon fill="#181818" points="702.61,507.0769,706.4062,497.989,702.4974,502.0781,698.4083,498.1693,702.61,507.0769" style="stroke:#181818;stroke-width:1;"/></g><!--link SS to RT--><g class="link" data-entity-1="ent0014" data-entity-2="ent0021" data-link-type="dependency" data-source-line="58" id="lnk40"><path d="M832.59,407.8469 C815.28,422.7669 789.85,444.8569 768,464.4869 C752.22,478.6669 738.9427,490.9391 726.0227,503.0191" fill="none" id="SS-to-RT" style="stroke:#181818;stroke-width:1;"/><polygon fill="#181818" points="721.64,507.1169,730.9459,503.892,725.2923,503.7021,725.4822,498.0484,721.64,507.1169" style="stroke:#181818;stroke-width:1;"/></g><!--link FS to PA--><g class="link" data-entity-1="ent0016" data-entity-2="ent0018" data-link-type="dependency" data-source-line="59" id="lnk41"><path d="M532.69,407.9469 C519.98,416.8769 504.74,428.1969 492,439.4869 C467.55,461.1369 446.1327,484.6968 430.6927,502.5668" fill="none" id="FS-to-PA" style="stroke:#181818;stroke-width:1;"/><polygon fill="#181818" points="426.77,507.1069,435.6808,502.9119,430.0389,503.3235,429.6273,497.6816,426.77,507.1069" style="stroke:#181818;stroke-width:1;"/></g><!--link FS to AT--><g class="link" data-entity-1="ent0016" data-entity-2="ent0019" data-link-type="dependency" data-source-line="60" id="lnk42"><path d="M559.26,407.8969 C559.64,433.6369 560.2714,475.3375 560.6514,501.0775" fill="none" id="FS-to-AT" style="stroke:#181818;stroke-width:1;"/><polygon fill="#181818" points="560.74,507.0769,564.6067,498.0188,560.6662,502.0774,556.6076,498.1369,560.74,507.0769" style="stroke:#181818;stroke-width:1;"/></g><!--link Gen to JSON--><g class="link" data-entity-1="ent0003" data-entity-2="ent0043" data-link-type="dependency" data-source-line="67" id="lnk46"><path d="M130.53,157.9469 C147.35,166.2269 166.51,177.0669 182,189.5969 C198.6,203.0269 210.4612,216.6635 221.6712,231.5535" fill="none" id="Gen-to-JSON" style="stroke:#181818;stroke-width:1;stroke-dasharray:7,7;"/><polygon fill="#181818" points="225.28,236.3469,223.0625,226.7509,222.2727,232.3524,216.6713,231.5626,225.28,236.3469" style="stroke:#181818;stroke-width:1;"/><text fill="#000000" font-family="sans-serif" font-size="13" lengthAdjust="spacing" textLength="29.561" x="201" y="202.6638">read</text></g><!--link Gen to Audio--><g class="link" data-entity-1="ent0003" data-entity-2="ent0044" data-link-type="dependency" data-source-line="68" id="lnk47"><path d="M70.03,158.0369 C47.51,179.9269 14,219.6069 14,261.8969 C14,261.8969 14,261.8969 14,526.6369 C14,601.3669 242.7422,649.2574 363.7322,669.4874" fill="none" id="Gen-to-Audio" style="stroke:#181818;stroke-width:1;stroke-dasharray:7,7;"/><polygon fill="#181818" points="369.65,670.4769,361.4329,665.0474,364.7185,669.6523,360.1136,672.9379,369.65,670.4769" style="stroke:#181818;stroke-width:1;"/><text fill="#000000" font-family="sans-serif" font-size="13" lengthAdjust="spacing" textLength="32.6841" x="15" y="393.9038">write</text></g><!--link SL to JSON--><g class="link" data-entity-1="ent0008" data-entity-2="ent0043" data-link-type="dependency" data-source-line="69" id="lnk48"><path d="M497.26,146.0269 C431.79,153.5169 326.92,168.3869 294,189.5969 C276.57,200.8269 266.1943,215.0393 257.5843,230.9593" fill="none" id="SL-to-JSON" style="stroke:#181818;stroke-width:1;stroke-dasharray:7,7;"/><polygon fill="#181818" points="254.73,236.2369,262.5298,230.2233,257.1086,231.8389,255.493,226.4176,254.73,236.2369" style="stroke:#181818;stroke-width:1;"/><text fill="#000000" font-family="sans-serif" font-size="13" lengthAdjust="spacing" textLength="27.7837" x="295" y="202.6638">load</text></g><!--link AM to Audio--><g class="link" data-entity-1="ent0011" data-entity-2="ent0044" data-link-type="dependency" data-source-line="70" id="lnk49"><path d="M1006.52,544.0769 C986.96,559.0569 956.68,580.0269 927,591.7869 C785.74,647.7269 613.3706,668.5054 516.4906,676.3054" fill="none" id="AM-to-Audio" style="stroke:#181818;stroke-width:1;stroke-dasharray:7,7;"/><polygon fill="#181818" points="510.51,676.7869,519.802,680.0517,515.4939,676.3856,519.16,672.0775,510.51,676.7869" style="stroke:#181818;stroke-width:1;"/><text fill="#000000" font-family="sans-serif" font-size="13" lengthAdjust="spacing" textLength="33.0586" x="903" y="612.8538">fetch</text></g><!--link AM to BGM--><g class="link" data-entity-1="ent0011" data-entity-2="ent0045" data-link-type="dependency" data-source-line="71" id="lnk50"><path d="M1028,544.0469 C1028,570.9569 1028,637.8069 1028,669.4369" fill="none" id="AM-to-BGM" style="stroke:#181818;stroke-width:1;stroke-dasharray:7,7;"/><polygon fill="#181818" points="1028,675.4369,1032,666.4369,1028,670.4369,1024,666.4369,1028,675.4369" style="stroke:#181818;stroke-width:1;"/><text fill="#000000" font-family="sans-serif" font-size="13" lengthAdjust="spacing" textLength="100.02" x="1029" y="612.8538">fetch (optional)</text></g><?plantuml-src PLDDR-8m4BtxLunOQKM52fLwww4IYqZR5ImiZhYqUt2J8NX9xCWsj6ZL_xvZnoIfgbmcxyt7c_6CFKXL2oCgo7HLQuNASNSk4GncJgYYH6PRbrUH7GgZZogVwL8R-9RC_SUOauv2DlFVrpStjp0rsLuwYZyQXDK9pKdY6sCrHOi2OP2c77XcPErWk3wxlLPN0n0MFFwF0JmNgD08X-Fw_CSJ3wWyVD8oGti1j_wFO2BX-lg--OSxegmi53JExADNDp5QELGv33SeCWSZICyrHYKZs9BcHaWo9nsKkesSAsVEWo2ET3GH2oroD44ANn3nyIbYfgdtuTfFOA4BcLsrqQcii9GAPoJ6wBACET95Gq-FkTHBeIXBGqoNNvBpZ0Pasuoh6fLKHK13o8f7eJMAmoU6HsQhtITy6_54Ab5YXoVyQ_6zC9Z3xB8kdOvrASvefYVXH2DzFOqzALdHS-OflhkcfxGXvk-rGNelhPuohG8rVsgeZL-prEzLW3VfHSXpkaTA5gVso69XlvjnfBOfFlFUV16M8tsapNWGLNnj8WW9n888gQI3xv0RUSAEcYuZrK5XiD7cFNlRisbazBEUTUbhaZUfnT7Yn28UEZPKEEdoM26TNz3kOrSyi65w_AiTXXVjCAqBleor_24HlEs5HdlJ2mrsqlD9slGqvvsaWnvq4tjHF_dgLxWERx2TBcdxOH3M5PRhM_kYHb099NTetVYlrIeu1xxrfjj4PoUlHJK9x8-79MF-WCVZ-v2NEZ0eyXPhqj_1cw7ZPFIOFSUI3f1Hqts_7RfiVm4f-mM2eQuThPaeh_u3?></g></svg>