<svg xmlns="http://www.w3.org/2000/svg" xmlns:xlink="http://www.w3.org/1999/xlink" contentStyleType="text/css" data-diagram-type="SEQUENCE" height="1505px" preserveAspectRatio="none" style="width:1247px;height:1505px;background:#FFFFFF;" version="1.1" viewBox="0 0 1247 1505" width="1247px" zoomAndPan="magnify"><?plantuml 1.2026.3beta4?><defs/><g><g class="title" data-source-line="1"><text fill="#000000" font-family="sans-serif" font-size="14" font-weight="700" lengthAdjust="spacing" textLength="316.6543" x="461.9705" y="27.9951">Playback Flow - Script Loading to Finale</text></g><rect fill="none" height="90.2031" style="stroke:#000000;stroke-width:1.5;" width="472.2402" x="315.3398" y="518.3203"/><rect fill="none" height="624.3906" style="stroke:#000000;stroke-width:1.5;" width="916.2554" x="315.3398" y="723.9219"/><rect fill="none" height="232.9297" style="stroke:#000000;stroke-width:1.5;" width="569.1733" x="652.4219" y="806.3203"/><rect fill="none" height="59.2656" style="stroke:#000000;stroke-width:1.5;" width="286.5273" x="925.0679" y="972.9844"/><rect fill="none" height="216.7969" style="stroke:#000000;stroke-width:1.5;" width="281.4526" x="915.0679" y="1053.25"/><rect fill="none" height="59.2656" style="stroke:#000000;stroke-width:1.5;" width="208.7271" x="925.0679" y="1203.7813"/><g class="participant-lifeline" data-entity-uid="part1" data-qualified-name="User" id="part1-lifeline"><g><title>User</title><rect fill="#000000" fill-opacity="0.00000" height="1304.9844" width="8" x="19.9551" y="118.5938"/><line style="stroke:#181818;stroke-width:0.5;stroke-dasharray:5,5;" x1="23" x2="23" y1="118.5938" y2="1423.5781"/></g></g><g class="participant-lifeline" data-entity-uid="part2" data-qualified-name="ScriptLoader" id="part2-lifeline"><g><title>ScriptLoader</title><rect fill="#000000" fill-opacity="0.00000" height="1304.9844" width="8" x="159.9077" y="118.5938"/><line style="stroke:#181818;stroke-width:0.5;stroke-dasharray:5,5;" x1="163.5049" x2="163.5049" y1="118.5938" y2="1423.5781"/></g></g><g class="participant-lifeline" data-entity-uid="part3" data-qualified-name="Theater" id="part3-lifeline"><g><title>Theater</title><rect fill="#000000" fill-opacity="0.00000" height="1304.9844" width="8" x="355.5776" y="118.5938"/><line style="stroke:#181818;stroke-width:0.5;stroke-dasharray:5,5;" x1="359.3398" x2="359.3398" y1="118.5938" y2="1423.5781"/></g></g><g class="participant-lifeline" data-entity-uid="part4" data-qualified-name="TL" id="part4-lifeline"><g><title>TimelineController</title><rect fill="#000000" fill-opacity="0.00000" height="1304.9844" width="8" x="576.8564" y="118.5938"/><line style="stroke:#181818;stroke-width:0.5;stroke-dasharray:5,5;" x1="580.291" x2="580.291" y1="118.5938" y2="1423.5781"/></g></g><g class="participant-lifeline" data-entity-uid="part5" data-qualified-name="AM" id="part5-lifeline"><g><title>AudioManager</title><rect fill="#000000" fill-opacity="0.00000" height="1304.9844" width="8" x="716.001" y="118.5938"/><line style="stroke:#181818;stroke-width:0.5;stroke-dasharray:5,5;" x1="719.4219" x2="719.4219" y1="118.5938" y2="1423.5781"/></g></g><g class="participant-lifeline" data-entity-uid="part6" data-qualified-name="Scene" id="part6-lifeline"><g><title>Scene</title><rect fill="#000000" fill-opacity="0.00000" height="1304.9844" width="8" x="982.3545" y="118.5938"/><line style="stroke:#181818;stroke-width:0.5;stroke-dasharray:5,5;" x1="986.0679" x2="986.0679" y1="118.5938" y2="1423.5781"/></g></g><g class="participant participant-head" data-entity-uid="part1" data-qualified-name="User" id="part1-head"><text fill="#000000" font-family="sans-serif" font-size="14" lengthAdjust="spacing" textLength="31.9102" x="5" y="115.292">User</text><ellipse cx="23.9551" cy="50.7969" fill="#E2E2F0" rx="8" ry="8" style="stroke:#181818;stroke-width:0.5;"/><path d="M23.9551,58.7969 L23.9551,85.7969 M10.9551,66.7969 L36.9551,66.7969 M23.9551,85.7969 L10.9551,100.7969 M23.9551,85.7969 L36.9551,100.7969" fill="none" style="stroke:#181818;stroke-width:0.5;"/></g><g class="participant participant-tail" data-entity-uid="part1" data-qualified-name="User" id="part1-tail"><text fill="#000000" font-family="sans-serif" font-size="14" lengthAdjust="spacing" textLength="31.9102" x="5" y="1435.5732">User</text><ellipse cx="23.9551" cy="1447.375" fill="#E2E2F0" rx="8" ry="8" style="stroke:#181818;stroke-width:0.5;"/><path d="M23.9551,1455.375 L23.9551,1482.375 M10.9551,1463.375 L36.9551,1463.375 M23.9551,1482.375 L10.9551,1497.375 M23.9551,1482.375 L36.9551,1497.375" fill="none" style="stroke:#181818;stroke-width:0.5;"/></g><g class="participant participant-head" data-entity-uid="part2" data-qualified-name="ScriptLoader" id="part2-head"><rect fill="#E2E2F0" height="30.2969" rx="2.5" ry="2.5" style="stroke:#181818;stroke-width:0.5;" width="102.8057" x="112.5049" y="87.2969"/><text fill="#000000" font-family="sans-serif" font-size="14" lengthAdjust="spacing" textLength="88.8057" x="119.5049" y="107.292">ScriptLoader</text></g><g class="participant participant-tail" data-entity-uid="part2" data-qualified-name="ScriptLoader" id="part2-tail"><rect fill="#E2E2F0" height="30.2969" rx="2.5" ry="2.5" style="stroke:#181818;stroke-width:0.5;" width="102.8057" x="112.5049" y="1422.5781"/><text fill="#000000" font-family="sans-serif" font-size="14" lengthAdjust="spacing" textLength="88.8057" x="119.5049" y="1442.5732">ScriptLoader</text></g><g class="participant participant-head" data-entity-uid="part3" data-qualified-name="Theater" id="part3-head"><rect fill="#E2E2F0" height="30.2969" rx="2.5" ry="2.5" style="stroke:#181818;stroke-width:0.5;" width="68.4756" x="325.3398" y="87.2969"/><text fill="#000000" font-family="sans-serif" font-size="14" lengthAdjust="spacing" textLength="54.4756" x="332.3398" y="107.292">Theater</text></g><g class="participant participant-tail" data-entity-uid="part3" data-qualified-name="Theater" id="part3-tail"><rect fill="#E2E2F0" height="30.2969" rx="2.5" ry="2.5" style="stroke:#181818;stroke-width:0.5;" width="68.4756" x="325.3398" y="1422.5781"/><text fill="#000000" font-family="sans-serif" font-size="14" lengthAdjust="spacing" textLength="54.4756" x="332.3398" y="1442.5732">Theater</text></g><g class="participant participant-head" data-entity-uid="part4" data-qualified-name="TL" id="part4-head"><rect fill="#E2E2F0" height="30.2969" rx="2.5" ry="2.5" style="stroke:#181818;stroke-width:0.5;" width="143.1309" x="509.291" y="87.2969"/><text fill="#000000" font-family="sans-serif" font-size="14" lengthAdjust="spacing" textLength="129.1309" x="516.291" y="107.292">TimelineController</text></g><g class="participant participant-tail" data-entity-uid="part4" data-qualified-name="TL" id="part4-tail"><rect fill="#E2E2F0" height="30.2969" rx="2.5" ry="2.5" style="stroke:#181818;stroke-width:0.5;" width="143.1309" x="509.291" y="1422.5781"/><text fill="#000000" font-family="sans-serif" font-size="14" lengthAdjust="spacing" textLength="129.1309" x="516.291" y="1442.5732">TimelineController</text></g><g class="participant participant-head" data-entity-uid="part5" data-qualified-name="AM" id="part5-head"><rect fill="#E2E2F0" height="30.2969" rx="2.5" ry="2.5" style="stroke:#181818;stroke-width:0.5;" width="115.1582" x="662.4219" y="87.2969"/><text fill="#000000" font-family="sans-serif" font-size="14" lengthAdjust="spacing" textLength="101.1582" x="669.4219" y="107.292">AudioManager</text></g><g class="participant participant-tail" data-entity-uid="part5" data-qualified-name="AM" id="part5-tail"><rect fill="#E2E2F0" height="30.2969" rx="2.5" ry="2.5" style="stroke:#181818;stroke-width:0.5;" width="115.1582" x="662.4219" y="1422.5781"/><text fill="#000000" font-family="sans-serif" font-size="14" lengthAdjust="spacing" textLength="101.1582" x="669.4219" y="1442.5732">AudioManager</text></g><g class="participant participant-head" data-entity-uid="part6" data-qualified-name="Scene" id="part6-head"><rect fill="#E2E2F0" height="46.5938" rx="2.5" ry="2.5" style="stroke:#181818;stroke-width:0.5;" width="102.5732" x="935.0679" y="71"/><text fill="#000000" font-family="sans-serif" font-size="14" lengthAdjust="spacing" textLength="42.6836" x="965.0127" y="90.9951">Scene</text><text fill="#000000" font-family="sans-serif" font-size="14" lengthAdjust="spacing" textLength="88.5732" x="942.0679" y="107.292">Components</text></g><g class="participant participant-tail" data-entity-uid="part6" data-qualified-name="Scene" id="part6-tail"><rect fill="#E2E2F0" height="46.5938" rx="2.5" ry="2.5" style="stroke:#181818;stroke-width:0.5;" width="102.5732" x="935.0679" y="1422.5781"/><text fill="#000000" font-family="sans-serif" font-size="14" lengthAdjust="spacing" textLength="42.6836" x="965.0127" y="1442.5732">Scene</text><text fill="#000000" font-family="sans-serif" font-size="14" lengthAdjust="spacing" textLength="88.5732" x="942.0679" y="1458.8701">Components</text></g><rect fill="#EEEEEE" height="3" style="stroke:#EEEEEE;stroke-width:1;" width="1241.5952" x="0" y="149.1602"/><line style="stroke:#000000;stroke-width:1;" x1="0" x2="1241.5952" y1="149.1602" y2="149.1602"/><line style="stroke:#000000;stroke-width:1;" x1="0" x2="1241.5952" y1="152.1602" y2="152.1602"/><rect fill="#EEEEEE" height="23.1328" style="stroke:#000000;stroke-width:2;" width="124.8174" x="558.3889" y="138.5938"/><text fill="#000000" font-family="sans-serif" font-size="13" font-weight="700" lengthAdjust="spacing" textLength="106.2915" x="564.3889" y="154.6606">Script Loading</text><g class="message" data-entity-1="part1" data-entity-2="part2" id="msg1"><polygon fill="#181818" points="151.9077,203.9922,161.9077,207.9922,151.9077,211.9922,155.9077,207.9922" style="stroke:#181818;stroke-width:1;"/><line style="stroke:#181818;stroke-width:1;" x1="23.9551" x2="157.9077" y1="207.9922" y2="207.9922"/><text fill="#000000" font-family="sans-serif" font-size="13" lengthAdjust="spacing" textLength="115.9526" x="30.9551" y="187.7935">Drag &amp; drop JSON</text><text fill="#000000" font-family="sans-serif" font-size="13" lengthAdjust="spacing" textLength="89.5464" x="30.9551" y="202.9263">or URL param</text></g><g class="message" data-entity-1="part2" data-entity-2="part2" id="msg2"><line style="stroke:#181818;stroke-width:1;" x1="163.9077" x2="205.9077" y1="237.125" y2="237.125"/><line style="stroke:#181818;stroke-width:1;" x1="205.9077" x2="205.9077" y1="237.125" y2="250.125"/><line style="stroke:#181818;stroke-width:1;" x1="164.9077" x2="205.9077" y1="250.125" y2="250.125"/><polygon fill="#181818" points="174.9077,246.125,164.9077,250.125,174.9077,254.125,170.9077,250.125" style="stroke:#181818;stroke-width:1;"/><text fill="#000000" font-family="sans-serif" font-size="13" lengthAdjust="spacing" textLength="181.6699" x="170.9077" y="232.0591">Validate GameScript format</text></g><g class="message" data-entity-1="part2" data-entity-2="part3" id="msg3"><polygon fill="#181818" points="347.5776,275.2578,357.5776,279.2578,347.5776,283.2578,351.5776,279.2578" style="stroke:#181818;stroke-width:1;"/><line style="stroke:#181818;stroke-width:1;" x1="163.9077" x2="353.5776" y1="279.2578" y2="279.2578"/><text fill="#000000" font-family="sans-serif" font-size="13" lengthAdjust="spacing" textLength="132.3359" x="170.9077" y="274.1919">onLoad(gameScript)</text></g><rect fill="#EEEEEE" height="3" style="stroke:#EEEEEE;stroke-width:1;" width="1241.5952" x="0" y="307.8242"/><line style="stroke:#000000;stroke-width:1;" x1="0" x2="1241.5952" y1="307.8242" y2="307.8242"/><line style="stroke:#000000;stroke-width:1;" x1="0" x2="1241.5952" y1="310.8242" y2="310.8242"/><rect fill="#EEEEEE" height="23.1328" style="stroke:#000000;stroke-width:2;" width="110.624" x="565.4856" y="297.2578"/><text fill="#000000" font-family="sans-serif" font-size="13" font-weight="700" lengthAdjust="spacing" textLength="92.0981" x="571.4856" y="313.3247">Initialization</text><g class="message" data-entity-1="part3" data-entity-2="part4" id="msg4"><polygon fill="#181818" points="568.8564,347.5234,578.8564,351.5234,568.8564,355.5234,572.8564,351.5234" style="stroke:#181818;stroke-width:1;"/><line style="stroke:#181818;stroke-width:1;" x1="359.5776" x2="574.8564" y1="351.5234" y2="351.5234"/><text fill="#000000" font-family="sans-serif" font-size="13" lengthAdjust="spacing" textLength="197.2788" x="366.5776" y="346.4575">new TimelineController(script)</text></g><g class="message" data-entity-1="part4" data-entity-2="part4" id="msg5"><line style="stroke:#181818;stroke-width:1;" x1="580.8564" x2="622.8564" y1="399.8555" y2="399.8555"/><line style="stroke:#181818;stroke-width:1;" x1="622.8564" x2="622.8564" y1="399.8555" y2="412.8555"/><line style="stroke:#181818;stroke-width:1;" x1="581.8564" x2="622.8564" y1="412.8555" y2="412.8555"/><polygon fill="#181818" points="591.8564,408.8555,581.8564,412.8555,591.8564,416.8555,587.8564,412.8555" style="stroke:#181818;stroke-width:1;"/><text fill="#000000" font-family="sans-serif" font-size="13" lengthAdjust="spacing" textLength="104.4697" x="587.8564" y="394.7896">buildSceneList()</text></g><path d="M703.4697,364.5234 L703.4697,434.5234 L881.4697,434.5234 L881.4697,374.5234 L871.4697,364.5234 L703.4697,364.5234" fill="#FEFFDD" style="stroke:#181818;stroke-width:0.5;"/><path d="M871.4697,364.5234 L871.4697,374.5234 L881.4697,374.5234 L871.4697,364.5234" fill="#FEFFDD" style="stroke:#181818;stroke-width:0.5;"/><text fill="#000000" font-family="sans-serif" font-size="13" lengthAdjust="spacing" textLength="157.8535" x="709.4697" y="381.5903">Opening -&gt; [Round Title</text><text fill="#000000" font-family="sans-serif" font-size="13" lengthAdjust="spacing" textLength="140.1436" x="709.4697" y="396.7231">-&gt; Speaking events...</text><text fill="#000000" font-family="sans-serif" font-size="13" lengthAdjust="spacing" textLength="125.2964" x="709.4697" y="411.856">-&gt; Vote Result] x N</text><text fill="#000000" font-family="sans-serif" font-size="13" lengthAdjust="spacing" textLength="58.6206" x="709.4697" y="426.9888">-&gt; Finale</text><g class="message" data-entity-1="part3" data-entity-2="part5" id="msg7"><polygon fill="#181818" points="708.001,457.1875,718.001,461.1875,708.001,465.1875,712.001,461.1875" style="stroke:#181818;stroke-width:1;"/><line style="stroke:#181818;stroke-width:1;" x1="359.5776" x2="714.001" y1="461.1875" y2="461.1875"/><text fill="#000000" font-family="sans-serif" font-size="13" lengthAdjust="spacing" textLength="135.0781" x="366.5776" y="456.1216">new AudioManager()</text></g><g class="message" data-entity-1="part5" data-entity-2="part5" id="msg8"><line style="stroke:#181818;stroke-width:1;" x1="720.001" x2="762.001" y1="490.3203" y2="490.3203"/><line style="stroke:#181818;stroke-width:1;" x1="762.001" x2="762.001" y1="490.3203" y2="503.3203"/><line style="stroke:#181818;stroke-width:1;" x1="721.001" x2="762.001" y1="503.3203" y2="503.3203"/><polygon fill="#181818" points="731.001,499.3203,721.001,503.3203,731.001,507.3203,727.001,503.3203" style="stroke:#181818;stroke-width:1;"/><text fill="#000000" font-family="sans-serif" font-size="13" lengthAdjust="spacing" textLength="172.5293" x="727.001" y="485.2544">loadTTSManifest(audioDir)</text></g><path d="M315.3398,518.3203 L379.7827,518.3203 L379.7827,525.4531 L369.7827,535.4531 L315.3398,535.4531 L315.3398,518.3203" fill="#EEEEEE" style="stroke:#000000;stroke-width:1.5;"/><rect fill="none" height="90.2031" style="stroke:#000000;stroke-width:1.5;" width="472.2402" x="315.3398" y="518.3203"/><text fill="#000000" font-family="sans-serif" font-size="13" font-weight="700" lengthAdjust="spacing" textLength="19.4429" x="330.3398" y="531.3872">alt</text><text fill="#000000" font-family="sans-serif" font-size="11" font-weight="700" lengthAdjust="spacing" textLength="104.3013" x="394.7827" y="530.5308">[manifest found]</text><g class="message" data-entity-1="part5" data-entity-2="part3" id="msg9"><polygon fill="#181818" points="370.5776,552.5859,360.5776,556.5859,370.5776,560.5859,366.5776,556.5859" style="stroke:#181818;stroke-width:1;"/><line style="stroke:#181818;stroke-width:1;stroke-dasharray:2,2;" x1="364.5776" x2="719.001" y1="556.5859" y2="556.5859"/><text fill="#000000" font-family="sans-serif" font-size="13" lengthAdjust="spacing" textLength="86.9438" x="376.5776" y="551.52">TTS available</text></g><line style="stroke:#000000;stroke-width:1;stroke-dasharray:2,2;" x1="315.3398" x2="787.5801" y1="565.5859" y2="565.5859"/><text fill="#000000" font-family="sans-serif" font-size="11" font-weight="700" lengthAdjust="spacing" textLength="128.7773" x="320.3398" y="575.7964">[manifest not found]</text><g class="message" data-entity-1="part5" data-entity-2="part3" id="msg10"><polygon fill="#181818" points="370.5776,596.5234,360.5776,600.5234,370.5776,604.5234,366.5776,600.5234" style="stroke:#181818;stroke-width:1;"/><line style="stroke:#181818;stroke-width:1;stroke-dasharray:2,2;" x1="364.5776" x2="719.001" y1="600.5234" y2="600.5234"/><text fill="#000000" font-family="sans-serif" font-size="13" lengthAdjust="spacing" textLength="77.8096" x="376.5776" y="595.4575">Silent mode</text></g><rect fill="#EEEEEE" height="3" style="stroke:#EEEEEE;stroke-width:1;" width="1241.5952" x="0" y="636.0898"/><line style="stroke:#000000;stroke-width:1;" x1="0" x2="1241.5952" y1="636.0898" y2="636.0898"/><line style="stroke:#000000;stroke-width:1;" x1="0" x2="1241.5952" y1="639.0898" y2="639.0898"/><rect fill="#EEEEEE" height="23.1328" style="stroke:#000000;stroke-width:2;" width="84.186" x="578.7046" y="625.5234"/><text fill="#000000" font-family="sans-serif" font-size="13" font-weight="700" lengthAdjust="spacing" textLength="65.6602" x="584.7046" y="641.5903">Playback</text><g class="message" data-entity-1="part1" data-entity-2="part3" id="msg11"><polygon fill="#181818" points="347.5776,675.7891,357.5776,679.7891,347.5776,683.7891,351.5776,679.7891" style="stroke:#181818;stroke-width:1;"/><line style="stroke:#181818;stroke-width:1;" x1="23.9551" x2="353.5776" y1="679.7891" y2="679.7891"/><text fill="#000000" font-family="sans-serif" font-size="13" lengthAdjust="spacing" textLength="62.2197" x="30.9551" y="674.7231">Click Play</text></g><g class="message" data-entity-1="part3" data-entity-2="part4" id="msg12"><polygon fill="#181818" points="568.8564,704.9219,578.8564,708.9219,568.8564,712.9219,572.8564,708.9219" style="stroke:#181818;stroke-width:1;"/><line style="stroke:#181818;stroke-width:1;" x1="359.5776" x2="574.8564" y1="708.9219" y2="708.9219"/><text fill="#000000" font-family="sans-serif" font-size="13" lengthAdjust="spacing" textLength="37.667" x="366.5776" y="703.856">play()</text></g><path d="M315.3398,723.9219 L391.9639,723.9219 L391.9639,731.0547 L381.9639,741.0547 L315.3398,741.0547 L315.3398,723.9219" fill="#EEEEEE" style="stroke:#000000;stroke-width:1.5;"/><rect fill="none" height="624.3906" style="stroke:#000000;stroke-width:1.5;" width="916.2554" x="315.3398" y="723.9219"/><text fill="#000000" font-family="sans-serif" font-size="13" font-weight="700" lengthAdjust="spacing" textLength="31.624" x="330.3398" y="736.9888">loop</text><text fill="#000000" font-family="sans-serif" font-size="11" font-weight="700" lengthAdjust="spacing" textLength="100.5361" x="406.9639" y="736.1323">[for each scene]</text><g class="message" data-entity-1="part4" data-entity-2="part3" id="msg13"><polygon fill="#181818" points="370.5776,758.1875,360.5776,762.1875,370.5776,766.1875,366.5776,762.1875" style="stroke:#181818;stroke-width:1;"/><line style="stroke:#181818;stroke-width:1;" x1="364.5776" x2="579.8564" y1="762.1875" y2="762.1875"/><text fill="#000000" font-family="sans-serif" font-size="13" lengthAdjust="spacing" textLength="153.8989" x="376.5776" y="757.1216">onSceneChange(scene)</text></g><g class="message" data-entity-1="part3" data-entity-2="part6" id="msg14"><polygon fill="#181818" points="974.3545,787.3203,984.3545,791.3203,974.3545,795.3203,978.3545,791.3203" style="stroke:#181818;stroke-width:1;"/><line style="stroke:#181818;stroke-width:1;" x1="359.5776" x2="980.3545" y1="791.3203" y2="791.3203"/><text fill="#000000" font-family="sans-serif" font-size="13" lengthAdjust="spacing" textLength="166.8291" x="366.5776" y="786.2544">Render scene component</text></g><path d="M652.4219,806.3203 L716.8647,806.3203 L716.8647,813.4531 L706.8647,823.4531 L652.4219,823.4531 L652.4219,806.3203" fill="#EEEEEE" style="stroke:#000000;stroke-width:1.5;"/><rect fill="none" height="232.9297" style="stroke:#000000;stroke-width:1.5;" width="569.1733" x="652.4219" y="806.3203"/><text fill="#000000" font-family="sans-serif" font-size="13" font-weight="700" lengthAdjust="spacing" textLength="19.4429" x="667.4219" y="819.3872">alt</text><text fill="#000000" font-family="sans-serif" font-size="11" font-weight="700" lengthAdjust="spacing" textLength="108.5498" x="731.8647" y="818.5308">[Speaking Scene]</text><g class="message" data-entity-1="part6" data-entity-2="part6" id="msg15"><line style="stroke:#181818;stroke-width:1;" x1="986.3545" x2="1028.3545" y1="844.5859" y2="844.5859"/><line style="stroke:#181818;stroke-width:1;" x1="1028.3545" x2="1028.3545" y1="844.5859" y2="857.5859"/><line style="stroke:#181818;stroke-width:1;" x1="987.3545" x2="1028.3545" y1="857.5859" y2="857.5859"/><polygon fill="#181818" points="997.3545,853.5859,987.3545,857.5859,997.3545,861.5859,993.3545,857.5859" style="stroke:#181818;stroke-width:1;"/><text fill="#000000" font-family="sans-serif" font-size="13" lengthAdjust="spacing" textLength="172.7959" x="993.3545" y="839.52">AnimatedText (typewriter)</text></g><g class="message" data-entity-1="part6" data-entity-2="part5" id="msg16"><polygon fill="#181818" points="731.001,882.7188,721.001,886.7188,731.001,890.7188,727.001,886.7188" style="stroke:#181818;stroke-width:1;"/><line style="stroke:#181818;stroke-width:1;" x1="725.001" x2="985.3545" y1="886.7188" y2="886.7188"/><text fill="#000000" font-family="sans-serif" font-size="13" lengthAdjust="spacing" textLength="242.3535" x="737.001" y="881.6528">playTTS(round, eventIndex, playerId)</text></g><g class="message" data-entity-1="part5" data-entity-2="part6" id="msg17"><polygon fill="#181818" points="974.3545,911.8516,984.3545,915.8516,974.3545,919.8516,978.3545,915.8516" style="stroke:#181818;stroke-width:1;"/><line style="stroke:#181818;stroke-width:1;stroke-dasharray:2,2;" x1="720.001" x2="980.3545" y1="915.8516" y2="915.8516"/><text fill="#000000" font-family="sans-serif" font-size="13" lengthAdjust="spacing" textLength="88.7085" x="727.001" y="910.7856">Audio playing</text></g><g class="message" data-entity-1="part6" data-entity-2="part6" id="msg18"><line style="stroke:#181818;stroke-width:1;" x1="986.3545" x2="1028.3545" y1="944.9844" y2="944.9844"/><line style="stroke:#181818;stroke-width:1;" x1="1028.3545" x2="1028.3545" y1="944.9844" y2="957.9844"/><line style="stroke:#181818;stroke-width:1;" x1="987.3545" x2="1028.3545" y1="957.9844" y2="957.9844"/><polygon fill="#181818" points="997.3545,953.9844,987.3545,957.9844,997.3545,961.9844,993.3545,957.9844" style="stroke:#181818;stroke-width:1;"/><text fill="#000000" font-family="sans-serif" font-size="13" lengthAdjust="spacing" textLength="140.9307" x="993.3545" y="939.9185">Show expression icon</text></g><path d="M925.0679,972.9844 L994.519,972.9844 L994.519,980.1172 L984.519,990.1172 L925.0679,990.1172 L925.0679,972.9844" fill="#EEEEEE" style="stroke:#000000;stroke-width:1.5;"/><rect fill="none" height="59.2656" style="stroke:#000000;stroke-width:1.5;" width="286.5273" x="925.0679" y="972.9844"/><text fill="#000000" font-family="sans-serif" font-size="13" font-weight="700" lengthAdjust="spacing" textLength="24.4512" x="940.0679" y="986.0513">opt</text><text fill="#000000" font-family="sans-serif" font-size="11" font-weight="700" lengthAdjust="spacing" textLength="197.0762" x="1009.519" y="985.1948">[Director Commentary enabled]</text><g class="message" data-entity-1="part6" data-entity-2="part6" id="msg19"><line style="stroke:#181818;stroke-width:1;" x1="986.3545" x2="1028.3545" y1="1011.25" y2="1011.25"/><line style="stroke:#181818;stroke-width:1;" x1="1028.3545" x2="1028.3545" y1="1011.25" y2="1024.25"/><line style="stroke:#181818;stroke-width:1;" x1="987.3545" x2="1028.3545" y1="1024.25" y2="1024.25"/><polygon fill="#181818" points="997.3545,1020.25,987.3545,1024.25,997.3545,1028.25,993.3545,1024.25" style="stroke:#181818;stroke-width:1;"/><text fill="#000000" font-family="sans-serif" font-size="13" lengthAdjust="spacing" textLength="144.4219" x="993.3545" y="1006.1841">Show thinking overlay</text></g><path d="M915.0679,1053.25 L979.5107,1053.25 L979.5107,1060.3828 L969.5107,1070.3828 L915.0679,1070.3828 L915.0679,1053.25" fill="#EEEEEE" style="stroke:#000000;stroke-width:1.5;"/><rect fill="none" height="216.7969" style="stroke:#000000;stroke-width:1.5;" width="281.4526" x="915.0679" y="1053.25"/><text fill="#000000" font-family="sans-serif" font-size="13" font-weight="700" lengthAdjust="spacing" textLength="19.4429" x="930.0679" y="1066.3169">alt</text><text fill="#000000" font-family="sans-serif" font-size="11" font-weight="700" lengthAdjust="spacing" textLength="91.8833" x="994.5107" y="1065.4604">[Voting Scene]</text><g class="message" data-entity-1="part6" data-entity-2="part6" id="msg20"><line style="stroke:#181818;stroke-width:1;" x1="986.3545" x2="1028.3545" y1="1091.5156" y2="1091.5156"/><line style="stroke:#181818;stroke-width:1;" x1="1028.3545" x2="1028.3545" y1="1091.5156" y2="1104.5156"/><line style="stroke:#181818;stroke-width:1;" x1="987.3545" x2="1028.3545" y1="1104.5156" y2="1104.5156"/><polygon fill="#181818" points="997.3545,1100.5156,987.3545,1104.5156,997.3545,1108.5156,993.3545,1104.5156" style="stroke:#181818;stroke-width:1;"/><text fill="#000000" font-family="sans-serif" font-size="13" lengthAdjust="spacing" textLength="175.0938" x="993.3545" y="1086.4497">Show "Voting..." animation</text></g><g class="message" data-entity-1="part6" data-entity-2="part6" id="msg21"><line style="stroke:#181818;stroke-width:1;" x1="986.3545" x2="1028.3545" y1="1133.6484" y2="1133.6484"/><line style="stroke:#181818;stroke-width:1;" x1="1028.3545" x2="1028.3545" y1="1133.6484" y2="1146.6484"/><line style="stroke:#181818;stroke-width:1;" x1="987.3545" x2="1028.3545" y1="1146.6484" y2="1146.6484"/><polygon fill="#181818" points="997.3545,1142.6484,987.3545,1146.6484,997.3545,1150.6484,993.3545,1146.6484" style="stroke:#181818;stroke-width:1;"/><text fill="#000000" font-family="sans-serif" font-size="13" lengthAdjust="spacing" textLength="191.166" x="993.3545" y="1128.5825">Reveal votes (line animation)</text></g><g class="message" data-entity-1="part6" data-entity-2="part6" id="msg22"><line style="stroke:#181818;stroke-width:1;" x1="986.3545" x2="1028.3545" y1="1175.7813" y2="1175.7813"/><line style="stroke:#181818;stroke-width:1;" x1="1028.3545" x2="1028.3545" y1="1175.7813" y2="1188.7813"/><line style="stroke:#181818;stroke-width:1;" x1="987.3545" x2="1028.3545" y1="1188.7813" y2="1188.7813"/><polygon fill="#181818" points="997.3545,1184.7813,987.3545,1188.7813,997.3545,1192.7813,993.3545,1188.7813" style="stroke:#181818;stroke-width:1;"/><text fill="#000000" font-family="sans-serif" font-size="13" lengthAdjust="spacing" textLength="140.2324" x="993.3545" y="1170.7153">Vote count animation</text></g><path d="M925.0679,1203.7813 L994.519,1203.7813 L994.519,1210.9141 L984.519,1220.9141 L925.0679,1220.9141 L925.0679,1203.7813" fill="#EEEEEE" style="stroke:#000000;stroke-width:1.5;"/><rect fill="none" height="59.2656" style="stroke:#000000;stroke-width:1.5;" width="208.7271" x="925.0679" y="1203.7813"/><text fill="#000000" font-family="sans-serif" font-size="13" font-weight="700" lengthAdjust="spacing" textLength="24.4512" x="940.0679" y="1216.8481">opt</text><text fill="#000000" font-family="sans-serif" font-size="11" font-weight="700" lengthAdjust="spacing" textLength="119.2759" x="1009.519" y="1215.9917">[Player eliminated]</text><g class="message" data-entity-1="part6" data-entity-2="part6" id="msg23"><line style="stroke:#181818;stroke-width:1;" x1="986.3545" x2="1028.3545" y1="1242.0469" y2="1242.0469"/><line style="stroke:#181818;stroke-width:1;" x1="1028.3545" x2="1028.3545" y1="1242.0469" y2="1255.0469"/><line style="stroke:#181818;stroke-width:1;" x1="987.3545" x2="1028.3545" y1="1255.0469" y2="1255.0469"/><polygon fill="#181818" points="997.3545,1251.0469,987.3545,1255.0469,997.3545,1259.0469,993.3545,1255.0469" style="stroke:#181818;stroke-width:1;"/><text fill="#000000" font-family="sans-serif" font-size="13" lengthAdjust="spacing" textLength="114.3467" x="993.3545" y="1236.981">Elimination effect</text></g><g class="message" data-entity-1="part6" data-entity-2="part4" id="msg24"><polygon fill="#181818" points="591.8564,1294.1797,581.8564,1298.1797,591.8564,1302.1797,587.8564,1298.1797" style="stroke:#181818;stroke-width:1;"/><line style="stroke:#181818;stroke-width:1;stroke-dasharray:2,2;" x1="585.8564" x2="985.3545" y1="1298.1797" y2="1298.1797"/><text fill="#000000" font-family="sans-serif" font-size="13" lengthAdjust="spacing" textLength="88.9878" x="597.8564" y="1293.1138">onComplete()</text></g><g class="message" data-entity-1="part4" data-entity-2="part4" id="msg25"><line style="stroke:#181818;stroke-width:1;" x1="580.8564" x2="622.8564" y1="1327.3125" y2="1327.3125"/><line style="stroke:#181818;stroke-width:1;" x1="622.8564" x2="622.8564" y1="1327.3125" y2="1340.3125"/><line style="stroke:#181818;stroke-width:1;" x1="581.8564" x2="622.8564" y1="1340.3125" y2="1340.3125"/><polygon fill="#181818" points="591.8564,1336.3125,581.8564,1340.3125,591.8564,1344.3125,587.8564,1340.3125" style="stroke:#181818;stroke-width:1;"/><text fill="#000000" font-family="sans-serif" font-size="13" lengthAdjust="spacing" textLength="78.8062" x="587.8564" y="1322.2466">nextScene()</text></g><g class="message" data-entity-1="part4" data-entity-2="part3" id="msg26"><polygon fill="#181818" points="370.5776,1372.4453,360.5776,1376.4453,370.5776,1380.4453,366.5776,1376.4453" style="stroke:#181818;stroke-width:1;"/><line style="stroke:#181818;stroke-width:1;" x1="364.5776" x2="579.8564" y1="1376.4453" y2="1376.4453"/><text fill="#000000" font-family="sans-serif" font-size="13" lengthAdjust="spacing" textLength="88.9878" x="376.5776" y="1371.3794">onComplete()</text></g><g class="message" data-entity-1="part3" data-entity-2="part6" id="msg27"><polygon fill="#181818" points="974.3545,1401.5781,984.3545,1405.5781,974.3545,1409.5781,978.3545,1405.5781" style="stroke:#181818;stroke-width:1;"/><line style="stroke:#181818;stroke-width:1;" x1="359.5776" x2="980.3545" y1="1405.5781" y2="1405.5781"/><text fill="#000000" font-family="sans-serif" font-size="13" lengthAdjust="spacing" textLength="124.0967" x="366.5776" y="1400.5122">Show Finale (stats)</text></g><?plantuml-src XLJBRjj03BphAuWS2WbeyW41NC1mcYA5yu3bvjBqm4YqlSXgLrYj7QTVNv9QlntqIivmoHboeucMuCdYnojMRt1h_JjSGba5qqOOUwoDcqFqS6iSMieohA8FyAkZaBKOegbCYoucWk2F4jC5OJoEcOQiSJJoBWPlBGN03gRZ0z1mMHj_ZmxdVNfuVv2-A2jozE96lccz8nUx2q5fDCi6W-CH1eCiawxXyjj1it0DDm7dy0Ngu5luMJu-l3YPS386VW-Rx01zodv6QseU4NvWG-dHcGyDnXDcqe99taaqdsyfXVPyvqmqNEylHkETzhpX27tCJ4VlP_JBkrI5CHlawzBOMlKOcoxcHUOyTndCV16luR4b9x8m-FV4BrtDHNaHNfmCs1A-IP9MeklLrPM6duK-eMvfunzOmuC6Dsknr-RmFhMvxo0_p_5DrlBmqsd9EJCZxWq5UMD2aQ6DqAGmoyYDPI2SomFvc0kuGcFnbHydsz6En5D-JYoDvP6WyJNJ62AYRtT_VqLsb94rd1FGYHSj1tcmp7hU7FOS2Ai5TBg20CcAFS_LZD42tPnoHHK2snNLF2Cdt1f750BLPi4p1eiyMtlAz10aubw5eJEyW5HFQHqXZnyjlGV3hnI7S3L3fc11yo2YVUrDl-C6rbyrHU6kxcb9pUqROff2k9dpRPGB_aretGRgEbbeKtcdICz7mdwJVYPymWs_YU43o8cZjM8-gnSNnkdyVaL1R14egTzgQQyIR-j_DD9Y5psETvo_3nNDf1PFy1DM1Ysi-0mwoEN-TepYF4LFfc9Tur5ncVz9nGM-v8QFA7u-zVU440LfDcFHJaTEfCrcUlqNBKNAYzqgzl_7EYgO4yezNTCzwfdbLDdwiuUyYnYxuXy0?></g></svg>